<svg xmlns="http://www.w3.org/2000/svg" xmlns:xlink="http://www.w3.org/1999/xlink" width="24" height="24" viewBox="0 0 24 24">
  <defs>
    <clipPath id="clip-path">
      <rect id="사각형_811" data-name="사각형 811" width="22" height="22" fill="none"/>
    </clipPath>
  </defs>
  <g id="그룹_1155" data-name="그룹 1155" transform="translate(-437 -1177)">
    <rect id="사각형_812" data-name="사각형 812" width="24" height="24" transform="translate(437 1177)" fill="none"/>
    <g id="그룹_1143" data-name="그룹 1143" transform="translate(438 1178)">
      <g id="그룹_1141" data-name="그룹 1141" clip-path="url(#clip-path)">
        <path id="패스_358" data-name="패스 358" d="M3.239,21.913A2.009,2.009,0,0,1,1.765,21.3a2.009,2.009,0,0,1-.611-1.474V6.913a2.182,2.182,0,0,1-.83-.744A1.949,1.949,0,0,1,0,5.057V2.085A2.009,2.009,0,0,1,.611.611,2.009,2.009,0,0,1,2.085,0H19.828A2.009,2.009,0,0,1,21.3.611a2.009,2.009,0,0,1,.611,1.474V5.057a1.949,1.949,0,0,1-.323,1.112,2.182,2.182,0,0,1-.83.744V19.828a2.087,2.087,0,0,1-2.085,2.085ZM2.883,7.141V19.773a.379.379,0,0,0,.128.294.451.451,0,0,0,.316.116H18.675a.343.343,0,0,0,.355-.355V7.141H2.883m-.8-1.73H19.828a.342.342,0,0,0,.355-.354V2.085a.343.343,0,0,0-.355-.355H2.085a.343.343,0,0,0-.355.355V5.057a.342.342,0,0,0,.355.354m5.633,7.2h6.476V10.957H7.718Z" transform="translate(0 0)" fill="#fff"/>
      </g>
    </g>
  </g>
</svg>
